<mxfile host="app.diagrams.net" modified="2024-02-08T21:19:29.092Z" agent="Mozilla/5.0 (Windows NT 10.0; Win64; x64) AppleWebKit/537.36 (KHTML, like Gecko) Chrome/121.0.0.0 Safari/537.36" etag="qzc6ohE9ENWIQ4DnZiRk" version="23.1.2" type="onedrive">
  <diagram name="Page-1" id="G9mqOghYu71zeF9slusp">
    <mxGraphModel grid="1" page="1" gridSize="10" guides="1" tooltips="1" connect="1" arrows="1" fold="1" pageScale="1" pageWidth="850" pageHeight="1100" math="0" shadow="0">
      <root>
        <mxCell id="0" />
        <mxCell id="1" parent="0" />
        <mxCell id="KdxVyNOwhijGu00CRTKT-2" value="Temperature - history/export" style="strokeWidth=1;shadow=0;dashed=0;align=center;html=1;shape=mxgraph.mockup.containers.window;align=left;verticalAlign=top;spacingLeft=8;strokeColor2=#008cff;strokeColor3=#c4c4c4;fontColor=#666666;mainText=;fontSize=17;labelBackgroundColor=none;whiteSpace=wrap;" vertex="1" parent="1">
          <mxGeometry x="20" y="100" width="440" height="550" as="geometry" />
        </mxCell>
        <mxCell id="KdxVyNOwhijGu00CRTKT-4" value="&lt;h1&gt;History / Export&lt;/h1&gt;&lt;p&gt;&lt;font style=&quot;font-size: 15px;&quot;&gt;Below are your most recent temperature conversions - showing 4/4 calculations. All calculations are shown to the nearest degree&lt;/font&gt;&lt;/p&gt;" style="text;html=1;strokeColor=none;fillColor=none;spacing=5;spacingTop=-20;whiteSpace=wrap;overflow=hidden;rounded=0;" vertex="1" parent="1">
          <mxGeometry x="30" y="130" width="360" height="190" as="geometry" />
        </mxCell>
        <mxCell id="KdxVyNOwhijGu00CRTKT-5" value="" style="rounded=0;whiteSpace=wrap;html=1;fillColor=#dae8fc;strokeColor=#6c8ebf;" vertex="1" parent="1">
          <mxGeometry x="30" y="250" width="420" height="140" as="geometry" />
        </mxCell>
        <mxCell id="HikEpKnLymW-1qDbTI3C-1" value="&lt;font style=&quot;font-size: 20px;&quot;&gt;-273 degrees C = -459 degrees F&lt;/font&gt;" style="text;html=1;strokeColor=none;fillColor=none;align=center;verticalAlign=middle;whiteSpace=wrap;rounded=0;" vertex="1" parent="1">
          <mxGeometry x="40" y="320" width="400" height="30" as="geometry" />
        </mxCell>
        <mxCell id="HikEpKnLymW-1qDbTI3C-2" value="&lt;font style=&quot;font-size: 20px;&quot;&gt;0 degrees F = -18 degrees C&lt;/font&gt;" style="text;html=1;strokeColor=none;fillColor=none;align=center;verticalAlign=middle;whiteSpace=wrap;rounded=0;" vertex="1" parent="1">
          <mxGeometry x="45" y="290" width="400" height="30" as="geometry" />
        </mxCell>
        <mxCell id="HikEpKnLymW-1qDbTI3C-3" value="&lt;font style=&quot;font-size: 20px;&quot;&gt;0 degrees C = 54 degrees F&lt;/font&gt;" style="text;html=1;strokeColor=none;fillColor=none;align=center;verticalAlign=middle;whiteSpace=wrap;rounded=0;" vertex="1" parent="1">
          <mxGeometry x="40" y="260" width="400" height="30" as="geometry" />
        </mxCell>
        <mxCell id="HikEpKnLymW-1qDbTI3C-5" value="&lt;font style=&quot;font-size: 15px;&quot;&gt;Either create a custom filename in the box below (then push &amp;lt;export&amp;gt;), or push &amp;lt;export&amp;gt; without creating a custom name to save your calculations in a text file&amp;nbsp;&lt;/font&gt;" style="text;html=1;strokeColor=none;fillColor=none;align=left;verticalAlign=middle;whiteSpace=wrap;rounded=0;labelPosition=center;verticalLabelPosition=middle;" vertex="1" parent="1">
          <mxGeometry x="30" y="380" width="390" height="90" as="geometry" />
        </mxCell>
        <mxCell id="HikEpKnLymW-1qDbTI3C-6" value="&lt;font style=&quot;font-size: 20px;&quot;&gt;-40 degrees C = -40 degrees F&lt;/font&gt;" style="text;html=1;strokeColor=none;fillColor=none;align=center;verticalAlign=middle;whiteSpace=wrap;rounded=0;" vertex="1" parent="1">
          <mxGeometry x="40" y="350" width="400" height="30" as="geometry" />
        </mxCell>
        <mxCell id="HikEpKnLymW-1qDbTI3C-7" value="" style="rounded=0;whiteSpace=wrap;html=1;fillColor=#EDEDED;" vertex="1" parent="1">
          <mxGeometry x="30" y="460" width="420" height="50" as="geometry" />
        </mxCell>
        <mxCell id="HikEpKnLymW-1qDbTI3C-8" value="Error message for invalid filenames" style="text;html=1;strokeColor=none;fillColor=none;align=center;verticalAlign=middle;whiteSpace=wrap;rounded=0;fontStyle=1;fontColor=#ff0000;" vertex="1" parent="1">
          <mxGeometry x="135" y="510" width="210" height="30" as="geometry" />
        </mxCell>
        <mxCell id="HikEpKnLymW-1qDbTI3C-9" value="&lt;font style=&quot;font-size: 20px;&quot;&gt;Export&lt;/font&gt;" style="rounded=1;whiteSpace=wrap;html=1;fontSize=20;fillColor=#dae8fc;strokeColor=#6c8ebf;gradientColor=#7ea6e0;" vertex="1" parent="1">
          <mxGeometry x="30" y="540" width="200" height="100" as="geometry" />
        </mxCell>
        <mxCell id="HikEpKnLymW-1qDbTI3C-10" value="Close" style="rounded=1;whiteSpace=wrap;html=1;fontSize=20;fillColor=#f5f5f5;gradientColor=#b3b3b3;strokeColor=#666666;" vertex="1" parent="1">
          <mxGeometry x="250" y="540" width="200" height="100" as="geometry" />
        </mxCell>
        <mxCell id="HikEpKnLymW-1qDbTI3C-11" value="Temperature - history/export" style="strokeWidth=1;shadow=0;dashed=0;align=center;html=1;shape=mxgraph.mockup.containers.window;align=left;verticalAlign=top;spacingLeft=8;strokeColor2=#008cff;strokeColor3=#c4c4c4;fontColor=#666666;mainText=;fontSize=17;labelBackgroundColor=none;whiteSpace=wrap;" vertex="1" parent="1">
          <mxGeometry x="470" y="100" width="440" height="580" as="geometry" />
        </mxCell>
        <mxCell id="HikEpKnLymW-1qDbTI3C-12" value="&lt;h1&gt;History / Export&lt;/h1&gt;&lt;p&gt;&lt;font style=&quot;font-size: 15px;&quot;&gt;Below are your most recent temperature conversions - showing 5/8 calculations. All calculations are shown to the nearest degree&lt;/font&gt;&lt;/p&gt;" style="text;html=1;strokeColor=none;fillColor=none;spacing=5;spacingTop=-20;whiteSpace=wrap;overflow=hidden;rounded=0;" vertex="1" parent="1">
          <mxGeometry x="480" y="130" width="360" height="190" as="geometry" />
        </mxCell>
        <mxCell id="HikEpKnLymW-1qDbTI3C-13" value="" style="rounded=0;whiteSpace=wrap;html=1;fillColor=#dae8fc;strokeColor=#6c8ebf;" vertex="1" parent="1">
          <mxGeometry x="480" y="250" width="420" height="170" as="geometry" />
        </mxCell>
        <mxCell id="HikEpKnLymW-1qDbTI3C-14" value="&lt;font style=&quot;font-size: 20px;&quot;&gt;-273 degrees C = -459 degrees F&lt;/font&gt;" style="text;html=1;strokeColor=none;fillColor=none;align=center;verticalAlign=middle;whiteSpace=wrap;rounded=0;" vertex="1" parent="1">
          <mxGeometry x="490" y="320" width="400" height="30" as="geometry" />
        </mxCell>
        <mxCell id="HikEpKnLymW-1qDbTI3C-15" value="&lt;font style=&quot;font-size: 20px;&quot;&gt;0 degrees F = -18 degrees C&lt;/font&gt;" style="text;html=1;strokeColor=none;fillColor=none;align=center;verticalAlign=middle;whiteSpace=wrap;rounded=0;" vertex="1" parent="1">
          <mxGeometry x="490" y="290" width="405" height="30" as="geometry" />
        </mxCell>
        <mxCell id="HikEpKnLymW-1qDbTI3C-16" value="&lt;font style=&quot;font-size: 20px;&quot;&gt;0 degrees C = 54 degrees F&lt;/font&gt;" style="text;html=1;strokeColor=none;fillColor=none;align=center;verticalAlign=middle;whiteSpace=wrap;rounded=0;" vertex="1" parent="1">
          <mxGeometry x="490" y="260" width="400" height="30" as="geometry" />
        </mxCell>
        <mxCell id="HikEpKnLymW-1qDbTI3C-17" value="&lt;font style=&quot;font-size: 15px;&quot;&gt;Either create a custom filename in the box below (then push &amp;lt;export&amp;gt;), or push &amp;lt;export&amp;gt; without creating a custom name to save your calculations in a text file&amp;nbsp;&lt;/font&gt;" style="text;html=1;strokeColor=none;fillColor=none;align=left;verticalAlign=middle;whiteSpace=wrap;rounded=0;labelPosition=center;verticalLabelPosition=middle;" vertex="1" parent="1">
          <mxGeometry x="490" y="410" width="390" height="90" as="geometry" />
        </mxCell>
        <mxCell id="HikEpKnLymW-1qDbTI3C-18" value="&lt;font style=&quot;font-size: 20px;&quot;&gt;-40 degrees C = -40 degrees F&lt;/font&gt;" style="text;html=1;strokeColor=none;fillColor=none;align=center;verticalAlign=middle;whiteSpace=wrap;rounded=0;" vertex="1" parent="1">
          <mxGeometry x="490" y="350" width="400" height="30" as="geometry" />
        </mxCell>
        <mxCell id="HikEpKnLymW-1qDbTI3C-19" value="" style="rounded=0;whiteSpace=wrap;html=1;fillColor=#EDEDED;" vertex="1" parent="1">
          <mxGeometry x="480" y="490" width="420" height="50" as="geometry" />
        </mxCell>
        <mxCell id="HikEpKnLymW-1qDbTI3C-20" value="Error message for invalid filenames" style="text;html=1;strokeColor=none;fillColor=none;align=center;verticalAlign=middle;whiteSpace=wrap;rounded=0;fontStyle=1;fontColor=#ff0000;" vertex="1" parent="1">
          <mxGeometry x="585" y="540" width="210" height="30" as="geometry" />
        </mxCell>
        <mxCell id="HikEpKnLymW-1qDbTI3C-21" value="&lt;font style=&quot;font-size: 20px;&quot;&gt;Export&lt;/font&gt;" style="rounded=1;whiteSpace=wrap;html=1;fontSize=20;fillColor=#dae8fc;strokeColor=#6c8ebf;gradientColor=#7ea6e0;" vertex="1" parent="1">
          <mxGeometry x="480" y="570" width="200" height="100" as="geometry" />
        </mxCell>
        <mxCell id="HikEpKnLymW-1qDbTI3C-22" value="Close" style="rounded=1;whiteSpace=wrap;html=1;fontSize=20;fillColor=#f5f5f5;gradientColor=#b3b3b3;strokeColor=#666666;" vertex="1" parent="1">
          <mxGeometry x="700" y="570" width="200" height="100" as="geometry" />
        </mxCell>
        <mxCell id="HikEpKnLymW-1qDbTI3C-23" value="&lt;font style=&quot;font-size: 20px;&quot;&gt;23 degrees C = 73 degrees F&lt;/font&gt;" style="text;html=1;strokeColor=none;fillColor=none;align=center;verticalAlign=middle;whiteSpace=wrap;rounded=0;" vertex="1" parent="1">
          <mxGeometry x="490" y="380" width="400" height="30" as="geometry" />
        </mxCell>
        <mxCell id="_niSIcJZn14g7hVe9_p5-1" value="Temperature Converter" style="strokeWidth=1;shadow=0;dashed=0;align=center;html=1;shape=mxgraph.mockup.containers.window;align=left;verticalAlign=top;spacingLeft=8;strokeColor2=#008cff;strokeColor3=#c4c4c4;fontColor=#666666;mainText=;fontSize=17;labelBackgroundColor=none;whiteSpace=wrap;" vertex="1" parent="1">
          <mxGeometry x="20" y="830" width="440" height="430" as="geometry" />
        </mxCell>
        <mxCell id="_niSIcJZn14g7hVe9_p5-2" value="&lt;h1 style=&quot;line-height: 86%;&quot;&gt;&lt;span style=&quot;background-color: initial;&quot;&gt;Temperature converter&lt;br&gt;&lt;/span&gt;&lt;/h1&gt;&lt;h1 style=&quot;line-height: 58%;&quot;&gt;&lt;font style=&quot;font-weight: normal; font-size: 15px;&quot;&gt;Please enter a temperature below then press the&lt;br&gt;measurement you want to convert it to.&lt;/font&gt;&lt;/h1&gt;" style="text;html=1;strokeColor=none;fillColor=none;spacing=5;spacingTop=-20;whiteSpace=wrap;overflow=hidden;rounded=0;" vertex="1" parent="1">
          <mxGeometry x="30" y="870" width="372.5" height="120" as="geometry" />
        </mxCell>
        <mxCell id="_niSIcJZn14g7hVe9_p5-3" value="" style="rounded=0;whiteSpace=wrap;html=1;" vertex="1" parent="1">
          <mxGeometry x="30" y="960" width="420" height="50" as="geometry" />
        </mxCell>
        <mxCell id="_niSIcJZn14g7hVe9_p5-5" value="" style="rounded=1;whiteSpace=wrap;html=1;" vertex="1" parent="1">
          <mxGeometry x="30" y="1020" width="200" height="100" as="geometry" />
        </mxCell>
        <mxCell id="_niSIcJZn14g7hVe9_p5-6" value="" style="rounded=1;whiteSpace=wrap;html=1;" vertex="1" parent="1">
          <mxGeometry x="250" y="1020" width="200" height="100" as="geometry" />
        </mxCell>
        <mxCell id="_niSIcJZn14g7hVe9_p5-7" value="" style="rounded=1;whiteSpace=wrap;html=1;" vertex="1" parent="1">
          <mxGeometry x="250" y="1140" width="200" height="100" as="geometry" />
        </mxCell>
        <mxCell id="_niSIcJZn14g7hVe9_p5-8" value="" style="rounded=1;whiteSpace=wrap;html=1;" vertex="1" parent="1">
          <mxGeometry x="30" y="1140" width="200" height="100" as="geometry" />
        </mxCell>
      </root>
    </mxGraphModel>
  </diagram>
</mxfile>
